<svg version="1.1" xmlns="http://www.w3.org/2000/svg" x="0" y="0" viewBox="0 0 120 120" xml:space="preserve">
    <g id="role-drinks" aria-labelledby="title" aria-describedby="desc" role="img">
        <title id="title">Role=Drinks</title>
        <desc id="desc">The universal design icon where the man is holding a bottle and mug of coffee.</desc>
        <path d="M120 58C119 26.6 93.4 1 62 0A60.11 60.11 0 0 0 0 62c1 31.4 26.6 57 58 58a60.11 60.11 0 0 0 62-62zm-7.2 5.4c-1.7 26.4-23 47.7-49.4 49.4C31.5 114.8 5 88.3 7 56.4 8.7 30 30 8.7 56.4 7c31.9-2 58.4 24.5 56.4 56.4z"></path>
        <path d="M97 38c-.1.6.2 1.5.2 2 0 2-2.1 2-2.1 2s1.3-.7 1-2.1c-.1-.6-.5-1.4-.4-2 .5-1.5 1.8-1.8 2.4-1.9-8.3-13.3-23.5-22-40.5-21.1C34.7 16.1 16.1 34.7 15 57.6a44.98 44.98 0 0 0 47.3 47.3A45.36 45.36 0 0 0 105 62.2c.4-7.7-1.2-15-4.2-21.5-.2 1.7-2 1.6-2 1.6s1.3-.7 1.1-1.9c-.1-.6-.5-1.4-.3-1.9 0 0 0-.1.1-.1-.4-.8-.9-1.6-1.4-2.3-.4.2-1 .7-1.3 1.9zm-45.1-6.3c.4-3.8 3.5-6.8 7.2-7.2 5.2-.5 9.5 3.8 9 9-.4 3.8-3.5 6.8-7.3 7.2-5.1.5-9.4-3.8-8.9-9zm50.6 13.7l-2.3 7.9c-.4 1.2-1.6 1.9-2.8 1.5l-5.6-1.6c-1.2-.4-1.9-1.6-1.5-2.8 0 0 0-.1.1-.2-.7-.6-1.2-1.4-1.6-2.2-6.6 1.6-11.8 2.4-17.8 4-.9.3-2.5 1.6-2.6 2.6-1.6 13 2.3 27.5 4.7 34.6l.6 1.4c.9 2.2.8 4.7-1.4 5.6-.5.2-1 .3-1.5.3-1.7 0-2.7-1-3.4-2.8l-.5-1.3c-1.8-4.6-2.9-9-5.3-16.4-.2-.5-.7-1.6-1.2-1.6h-1c-.5 0-1.3 1.8-1.4 2.3-2.5 7.6-2.9 11.1-4.8 15.7l-.5 1.3c-.7 1.7-1.7 2.7-3.4 2.7-.5 0-1.1-.1-1.5-.3-2.2-.9-2.5-3.4-1.6-5.6l.6-1.4c2.7-6.9 6-21.9 4.9-34.4-.1-1-1.6-2.4-2.6-2.7-3.8-1.1-7.5-1.8-11.4-2.6l1.1 3.1c.1.3-.1.7-.4.8l-2.8.9-2.8 1.1c-.3.1-.7 0-.8-.4l-4.5-12a2 2 0 0 1 .1-1.7l.4-.8c.2-.4.3-.8.2-1.2 0 0-1.2-4.4-1.5-5.9 0-.1-.3 0-.3-.2-.1-.3-.1-.8-.2-1.1H26c-.1-.1-.2 0-.2-.4l1.3-.5 1.3-.5c.3.3.2.3.1.4 0 .1-.1.1-.1.2.1.3.5.7.6 1 .1.1-.2.2-.1.3.6 1.3 2.6 5.5 2.6 5.5.2.4.5.7.9.8l.8.4c.5.2 1 .7 1.2 1.3l.8 2.3c9.2 1.1 16.8 1.3 24.8 1.3 8.6 0 17.3-.2 26.9-1.5 2-.3 3 .1 3.6.9.4-.1.7 0 1.1 0 .1 0 .2 0 .3.1.1 0 .2.1.3.1h.2c.2-.6.3-1 .3-1.1l9.8 2.8z"></path>
        <path d="M91.3 45.1h-.2-.1c0 .8-.3 1.7-.9 2.4.1.5.4.9.7 1.3.3-1 .7-2.3 1-3.5h-.1c-.2-.2-.3-.2-.4-.2z"></path>
    </g>
  </svg>
